<?xml version="1.0" standalone="no"?>
<!DOCTYPE svg PUBLIC "-//W3C//DTD SVG 20010904//EN"
 "http://www.w3.org/TR/2001/REC-SVG-20010904/DTD/svg10.dtd">
<svg version="1.0" xmlns="http://www.w3.org/2000/svg"
 width="512.000000pt" height="512.000000pt" viewBox="0 0 512.000000 512.000000"
 preserveAspectRatio="xMidYMid meet">
<metadata>
Created by potrace 1.14, written by Peter Selinger 2001-2017
</metadata>
<g transform="translate(0.000000,512.000000) scale(0.100000,-0.100000)"
fill="#000000" stroke="none">
<path d="M2010 4010 l0 -190 -195 0 -195 0 0 -765 0 -765 -190 0 -190 0 0
-190 0 -190 -190 0 -190 0 0 190 0 190 -430 0 -430 0 0 -1145 0 -1145 1765 0
1765 0 0 385 0 385 -190 0 -190 0 0 190 0 190 190 0 190 0 0 1335 0 1335 -380
0 -380 0 0 190 0 190 -380 0 -380 0 0 -190z"/>
</g>
</svg>
